<svg xmlns="http://www.w3.org/2000/svg" width="132.526" height="19" viewBox="-10.527 0 132.526 19" enable-background="new -10.527 0 132.526 19"><path fill="#1D1D1B" d="M105.89 9.098c.402-1.026 1.166-1.632 2.159-1.632.95 0 1.696.605 1.991 1.632h-4.15zm5.583 1.304v-.31c0-2.41-1.557-3.965-3.424-3.965-1.941 0-3.574 1.555-3.574 3.965 0 2.284 1.805 3.918 3.685 3.918 1.183 0 2.334-.575 3.05-1.444l-1.043-.871c-.42.637-1.213.994-2.007.994-1.227 0-2.224-.949-2.348-2.287h5.661zm-11.957 1.263c-.392.651-1.106 1.009-1.899 1.009-1.211 0-2.315-1.041-2.315-2.596 0-1.571 1.104-2.598 2.315-2.598.793 0 1.509.343 1.899.996l1.069-.887c-.729-.917-1.788-1.46-2.97-1.46-1.88 0-3.684 1.617-3.684 3.949 0 2.316 1.804 3.949 3.684 3.949 1.182 0 2.241-.561 2.97-1.478l-1.069-.884zm-10.093 2.161v-4.495c0-2.239-1.337-3.171-3.018-3.171-.652 0-1.493.327-1.928.699v-.514h-1.354v7.481h1.354v-4.649c0-1.042.87-1.682 1.85-1.682.965 0 1.742.608 1.742 1.759v4.572h1.354zm-16.096-1.383c-2.331 0-3.514-1.494-3.514-4.075 0-2.987 2.021-4.137 3.514-4.137 1.524 0 3.545 1.15 3.545 4.137 0 2.581-1.212 4.075-3.545 4.075m5.039-4.107c0-3.67-2.488-5.599-5.008-5.599h-.031c-2.549 0-5.007 1.929-5.007 5.599 0 3.173 1.803 5.535 4.852 5.63h.34099999999999997c3.049-.095 4.853-2.457 4.853-5.63m-40.098-1.991l-2.626 6.065-2.427-6.065h-1.432l3.126 7.868-1.523 3.484h1.478l4.852-11.353h-1.448zm-10.993-3.42v8.63c0 .963.248 1.912.342 2.254h-1.321c-.093-.201-.373-.947-.373-2.844v-8.04h1.352zm-6.173 10.901v-4.495c0-2.239-1.338-3.171-3.018-3.171-.652 0-1.493.327-1.929.699v-.514h-1.353v7.481h1.353v-4.649c0-1.042.871-1.682 1.85-1.682.965 0 1.743.608 1.743 1.759v4.572h1.354zm-16.095-1.383c-2.332 0-3.514-1.494-3.514-4.075 0-2.987 2.021-4.137 3.514-4.137 1.523 0 3.545 1.15 3.545 4.137 0 2.581-1.212 4.075-3.545 4.075m5.038-4.107c0-3.67-2.487-5.599-5.008-5.599h-.03c-2.55 0-5.007 1.929-5.007 5.599 0 3.173 1.804 5.535 4.853 5.63h.33999999999999997c3.049-.095 4.852-2.457 4.852-5.63"/><polygon fill="#EB625C" points="57.915,0.255 48.224,19 50.091,19 59.781,0.255"/><g fill="#1D1D1B"><path d="M120.247 0c-.947 0-1.724.806-1.724 1.787 0 .967.775 1.767 1.724 1.767.986 0 1.753-.8 1.753-1.767 0-.981-.767-1.787-1.753-1.787zm0 3.208c-.786 0-1.406-.635-1.406-1.42 0-.815.62-1.47 1.406-1.47.812 0 1.465.654 1.465 1.47 0 .785-.654 1.42-1.465 1.42zM120.721 2.158c-.111.159-.246.236-.411.236-.358 0-.557-.219-.557-.615 0-.49.343-.619.521-.619.229 0 .363.13.436.24l.026.039.256-.211-.021-.032c-.176-.241-.415-.369-.695-.369-.425 0-.854.327-.854.953 0 .567.353.948.876.948.364 0 .559-.199.687-.373l.023-.033-.262-.199-.025.035z"/></g></svg>