<svg xmlns="http://www.w3.org/2000/svg" width="18" height="18"><path fill="#1D1D1B" d="M9 0c-4.97 0-9 4.029-9 9 0 3.686 2.217 6.852 5.387 8.243-.025-.629-.004-1.383.158-2.067l1.157-4.902s-.288-.577-.288-1.426c0-1.333.773-2.33 1.736-2.33.819 0 1.214.615 1.214 1.351 0 .822-.524 2.055-.795 3.193-.226.955.479 1.734 1.421 1.734 1.705 0 2.854-2.19 2.854-4.785 0-1.973-1.328-3.449-3.744-3.449-2.73 0-4.432 2.036-4.432 4.311 0 .783.23 1.337.594 1.765.166.197.189.275.129.501l-.184.723c-.06.229-.244.31-.45.226-1.258-.514-1.844-1.891-1.844-3.438 0-2.557 2.157-5.623 6.433-5.623 3.437 0 5.697 2.487 5.697 5.156 0 3.531-1.962 6.167-4.855 6.167-.971 0-1.886-.525-2.199-1.121 0 0-.522 2.074-.633 2.474-.191.694-.564 1.387-.906 1.929.809.238 1.664.368 2.55.368 4.97 0 9-4.03 9-9.001s-4.03-8.999-9-8.999z"/></svg>