<?xml version="1.0" standalone="no"?>
<!DOCTYPE svg PUBLIC "-//W3C//DTD SVG 20010904//EN"
 "http://www.w3.org/TR/2001/REC-SVG-20010904/DTD/svg10.dtd">
<svg version="1.0" xmlns="http://www.w3.org/2000/svg"
 width="700.000000pt" height="700.000000pt" viewBox="0 0 700.000000 700.000000"
 preserveAspectRatio="xMidYMid meet">
<metadata>
Created by potrace 1.11, written by Peter Selinger 2001-2013
</metadata>
<g transform="translate(0.000000,700.000000) scale(0.100000,-0.100000)"
fill="#000000" stroke="none">
<path d="M3300 6989 c-757 -45 -1465 -325 -2050 -813 -125 -104 -333 -314
-442 -446 -392 -474 -660 -1058 -757 -1650 -38 -234 -46 -334 -46 -595 1 -235
10 -366 40 -536 3 -14 7 -41 9 -60 18 -135 139 -564 190 -674 8 -16 24 -55 36
-85 26 -67 150 -314 185 -369 14 -23 25 -43 25 -46 0 -10 185 -281 243 -353
147 -187 346 -394 512 -534 510 -428 1120 -701 1775 -794 19 -3 49 -7 65 -9
187 -27 606 -27 820 0 109 14 121 15 235 35 111 19 339 79 479 126 950 317
1717 1034 2110 1970 41 100 123 330 137 384 113 468 133 623 128 1005 -1 138
-5 259 -7 270 -3 12 -8 50 -11 86 -6 63 -11 95 -21 149 -3 14 -8 43 -11 65 -3
22 -10 60 -16 85 -5 25 -12 56 -15 70 -11 62 -58 226 -95 335 -173 516 -459
977 -844 1360 -121 121 -166 162 -264 241 -292 237 -634 434 -989 568 -139 53
-395 128 -516 151 -97 18 -199 35 -241 40 -27 3 -62 8 -79 10 -127 17 -413 24
-585 14z m505 -222 c11 -3 49 -8 85 -12 36 -4 124 -17 195 -30 654 -120 1248
-431 1720 -900 146 -145 209 -216 314 -355 39 -52 74 -99 79 -105 4 -5 35 -53
68 -105 100 -157 197 -339 254 -480 12 -30 30 -73 40 -95 31 -72 101 -296 103
-333 l2 -36 -210 -59 c-115 -33 -212 -61 -213 -63 -6 -4 19 -74 26 -74 4 0
101 27 217 60 115 32 210 58 211 57 4 -5 43 -206 49 -252 4 -27 8 -60 10 -71
37 -230 35 -592 -5 -869 -101 -706 -428 -1360 -934 -1867 -348 -350 -779 -619
-1246 -780 -102 -35 -359 -104 -438 -118 -92 -15 -185 -31 -212 -35 -95 -14
-216 -20 -420 -20 -253 0 -364 7 -520 35 -30 5 -68 12 -85 15 -141 24 -372 90
-543 155 -309 117 -604 281 -857 479 -142 111 -165 131 -320 286 -322 321
-569 697 -731 1112 -24 61 -44 116 -44 121 0 7 203 69 422 129 14 4 16 12 12
32 -12 52 -19 52 -164 10 -74 -22 -172 -50 -217 -63 l-83 -24 -19 67 c-47 160
-91 367 -106 506 -3 28 -10 82 -14 120 -9 73 -7 571 2 615 3 14 8 50 11 80 20
179 80 443 147 640 211 625 614 1185 1135 1578 143 107 372 249 504 312 8 4
33 17 55 28 295 149 738 270 1120 306 129 12 552 14 600 3z"/>
<path d="M3360 6108 c-78 -53 -104 -167 -57 -258 27 -55 74 -83 137 -84 96 -2
160 65 166 172 6 111 -52 183 -155 190 -46 3 -62 0 -91 -20z m123 -42 c44 -18
68 -57 69 -111 1 -65 -17 -101 -64 -124 -35 -17 -44 -18 -76 -7 -53 19 -77 56
-76 121 1 63 22 101 67 120 40 18 41 18 80 1z"/>
<path d="M4064 5901 c-42 -113 -57 -168 -50 -173 21 -14 46 -8 46 10 0 10 3
22 7 26 4 4 22 46 39 93 l31 87 27 -110 c15 -60 29 -117 31 -127 9 -43 17 -57
34 -57 14 0 31 36 79 163 33 89 57 165 54 169 -4 3 -15 8 -26 10 -15 2 -25
-15 -57 -101 -22 -58 -41 -106 -43 -108 -2 -3 -11 24 -19 59 -51 208 -52 211
-72 218 -19 7 -26 -6 -81 -159z"/>
<path d="M2793 6032 c-14 -2 -25 -12 -28 -25 -6 -28 -52 -244 -59 -277 -2 -14
-8 -40 -12 -57 -5 -26 -3 -33 9 -33 26 0 44 27 52 77 5 26 9 53 11 58 16 67
55 257 52 259 -1 1 -13 0 -25 -2z"/>
<path d="M2178 5776 c-11 -8 -19 -34 -24 -77 -3 -35 -8 -65 -9 -67 -1 -2 -29
13 -61 31 -48 29 -62 33 -81 24 -13 -6 -23 -13 -23 -16 0 -4 26 -22 58 -40 99
-59 119 -78 158 -155 35 -68 40 -74 59 -64 11 6 21 12 23 13 2 2 -15 39 -37
83 -40 78 -41 81 -36 158 3 44 8 89 11 102 5 25 -11 29 -38 8z"/>
<path d="M4809 5707 c-70 -35 -126 -133 -113 -201 16 -91 85 -141 187 -137 22
1 27 6 27 26 0 23 -4 25 -44 25 -37 0 -51 6 -80 34 -29 26 -36 41 -36 70 0 42
35 104 74 129 57 38 144 5 161 -60 8 -32 20 -42 45 -36 16 4 17 10 8 41 -30
107 -133 157 -229 109z"/>
<path d="M1552 5298 c-7 -7 -12 -16 -12 -21 0 -4 53 -66 117 -137 l116 -128
64 56 c34 32 63 61 63 65 0 5 -7 15 -15 23 -13 13 -20 10 -61 -28 l-46 -42
-31 34 c-95 108 -171 190 -177 190 -3 0 -11 -5 -18 -12z"/>
<path d="M5389 5257 c-30 -29 -90 -83 -132 -122 l-77 -70 74 -79 c64 -69 76
-78 90 -67 19 16 20 25 4 43 -7 7 -30 33 -51 57 l-39 43 24 25 c45 48 56 48
95 4 38 -43 54 -49 72 -27 9 10 3 23 -26 56 -21 24 -38 47 -38 53 0 5 14 20
31 34 l31 24 53 -61 c42 -48 55 -58 66 -49 25 20 14 43 -54 116 l-67 72 -56
-52z"/>
<path d="M1212 4839 c-8 -21 -1 -28 78 -80 48 -32 90 -61 93 -66 3 -4 -58 -9
-135 -9 -106 -2 -143 -5 -149 -15 -5 -8 -8 -17 -6 -21 1 -4 67 -50 147 -103
130 -85 146 -93 158 -78 6 9 12 20 12 24 0 4 -42 36 -94 71 -52 34 -93 64 -91
66 2 2 66 4 142 4 123 0 141 2 150 18 10 15 -5 29 -130 110 -78 51 -148 95
-154 97 -7 3 -17 -5 -21 -18z"/>
<path d="M953 4102 c-40 -22 -68 -58 -80 -102 -10 -39 -10 -42 0 -85 13 -52
77 -107 140 -121 104 -23 185 19 212 110 16 52 12 88 -16 133 -42 68 -184 104
-256 65z m172 -61 c65 -37 71 -116 14 -174 -27 -27 -33 -29 -80 -23 -68 8
-103 28 -123 70 -20 43 -20 65 1 96 40 60 117 72 188 31z"/>
<path d="M5499 3365 c-4 -3 -107 -35 -230 -70 -123 -35 -305 -87 -404 -115
-99 -29 -193 -56 -210 -60 -16 -4 -226 -64 -465 -133 -703 -203 -2076 -596
-2195 -629 -60 -17 -113 -34 -116 -37 -3 -3 -1 -22 5 -42 l11 -36 465 134
c256 73 551 158 655 187 105 30 458 131 785 225 327 94 850 244 1162 334 429
122 568 166 568 177 -1 23 -24 72 -31 65z"/>
<path d="M6124 2860 c-51 -26 -80 -81 -71 -137 27 -164 267 -149 269 17 1 102
-105 166 -198 120z"/>
<path d="M5754 2215 c-12 -8 -27 -29 -34 -47 -7 -18 -20 -41 -28 -50 -12 -14
-12 -20 -2 -33 7 -8 16 -15 21 -15 5 0 40 -20 79 -45 77 -50 82 -51 99 -31 9
11 -1 21 -53 52 -75 45 -95 72 -78 108 22 48 60 42 158 -25 39 -26 41 -27 52
-8 15 23 15 29 2 29 -5 0 -37 18 -71 40 -67 43 -110 50 -145 25z"/>
<path d="M5573 1955 c-33 -33 -35 -39 -30 -81 13 -117 171 -164 221 -65 44 84
-20 181 -120 181 -28 0 -44 -8 -71 -35z m111 -15 c79 -30 65 -140 -19 -140
-25 0 -40 8 -59 31 -32 38 -33 63 -1 94 26 27 41 30 79 15z"/>
<path d="M5341 1851 c-16 -10 -6 -51 13 -51 8 0 19 7 26 15 10 12 10 18 0 30
-14 17 -20 18 -39 6z"/>
<path d="M5423 1771 c-10 -16 -5 -24 35 -59 26 -22 65 -56 86 -75 36 -33 41
-34 52 -19 11 15 5 25 -49 75 -34 32 -73 66 -88 77 -24 18 -26 18 -36 1z"/>
<path d="M5210 1715 c-11 -14 -8 -21 26 -56 31 -32 36 -42 25 -49 -12 -7 -12
-11 -2 -24 11 -13 17 -14 28 -5 11 10 25 1 70 -44 49 -49 59 -55 90 -52 19 2
43 12 54 23 18 20 18 21 -1 27 -10 3 -28 1 -39 -4 -27 -15 -23 -17 -79 41 -47
48 -50 54 -35 70 8 9 12 22 8 27 -9 16 -35 13 -42 -5 -4 -12 -14 -7 -48 26
-37 36 -43 39 -55 25z"/>
<path d="M1720 1572 c-44 -21 -80 -88 -74 -135 10 -66 70 -120 133 -119 88 1
137 52 135 138 -2 62 -25 96 -81 120 -43 18 -71 18 -113 -4z"/>
<path d="M5145 1518 c-31 -18 -46 -36 -54 -66 -20 -72 35 -151 111 -159 40 -5
48 -2 81 30 42 40 52 87 17 87 -11 0 -20 -6 -20 -14 0 -22 -33 -56 -59 -61
-52 -10 -107 55 -89 105 9 28 58 57 76 46 5 -3 12 5 14 19 5 22 2 25 -26 25
-17 0 -40 -6 -51 -12z"/>
<path d="M4901 1344 c-41 -17 -66 -69 -57 -118 21 -109 161 -144 216 -54 25
41 25 53 2 55 -10 1 -25 -11 -34 -27 -9 -16 -29 -32 -43 -36 -27 -7 -75 9 -75
23 0 5 32 28 70 52 39 23 70 46 70 50 0 4 -11 18 -24 30 -33 31 -85 42 -125
25z m78 -49 c-4 -14 -90 -67 -97 -60 -11 11 14 60 37 71 25 13 64 5 60 -11z"/>
<path d="M4648 1319 c-15 -9 -11 -22 45 -127 82 -156 97 -176 126 -167 23 7
23 7 3 28 -11 12 -50 79 -87 150 -37 70 -67 127 -68 127 -1 0 -10 -5 -19 -11z"/>
<path d="M2336 1117 c-37 -90 -37 -134 -2 -162 14 -11 37 -22 51 -23 14 -1 36
-9 50 -18 23 -15 25 -15 34 8 6 12 26 61 46 107 23 55 33 87 26 94 -18 18 -36
-1 -65 -72 -31 -78 -56 -95 -102 -71 -32 18 -31 45 5 130 25 58 27 69 14 74
-25 10 -27 8 -57 -67z"/>
<path d="M4487 1127 c-71 -58 -39 -190 51 -214 49 -12 119 23 135 69 9 27 -30
30 -47 3 -21 -32 -68 -41 -101 -19 -33 22 -24 31 62 64 37 14 68 30 70 37 2 6
-12 27 -32 47 -44 44 -94 49 -138 13z m103 -32 c10 -12 7 -16 -16 -25 -16 -6
-39 -16 -52 -22 -36 -19 -47 3 -18 35 28 30 67 35 86 12z"/>
<path d="M2960 1095 c-10 -12 -10 -18 0 -30 16 -19 39 -19 46 0 6 15 -11 45
-26 45 -4 0 -13 -7 -20 -15z"/>
<path d="M2627 1033 c-42 -131 -51 -175 -36 -184 20 -12 27 -1 49 75 10 37 24
74 31 82 18 21 66 17 83 -7 16 -23 15 -29 -10 -119 -15 -53 -15 -63 -3 -71 8
-5 17 -9 20 -9 7 0 49 157 49 182 0 33 -44 70 -91 78 -24 4 -51 10 -60 14 -14
6 -20 -3 -32 -41z"/>
<path d="M4245 1048 c-46 -27 -58 -73 -27 -101 10 -9 40 -19 67 -22 59 -7 65
-11 65 -35 0 -20 -30 -33 -79 -34 -31 -1 -38 -22 -11 -36 25 -14 78 -4 109 19
17 13 24 28 23 51 -1 47 -30 72 -87 75 -26 2 -53 9 -59 15 -17 17 23 42 56 36
32 -6 46 19 18 34 -24 13 -50 12 -75 -2z"/>
<path d="M2921 889 c-19 -92 -20 -113 -9 -120 22 -15 26 -11 38 44 30 140 32
180 9 185 -13 2 -20 -19 -38 -109z"/>
<path d="M3128 944 c-57 -30 -74 -112 -38 -172 28 -45 76 -63 133 -49 26 7 27
6 23 -20 -5 -31 -9 -81 -7 -100 1 -14 27 -18 35 -5 3 5 8 42 11 83 4 41 8 83
10 94 1 11 6 55 10 98 7 74 7 77 -14 77 -11 0 -21 -4 -21 -9 0 -6 -12 -3 -27
5 -36 18 -80 17 -115 -2z m107 -49 c48 -47 17 -135 -46 -135 -38 0 -77 38 -74
71 1 13 3 30 4 37 2 22 40 52 66 52 14 0 37 -11 50 -25z"/>
<path d="M3780 953 c-52 -21 -80 -116 -51 -172 17 -30 70 -61 106 -61 30 0 95
33 95 48 0 4 -5 13 -12 20 -8 8 -17 6 -36 -8 -14 -11 -35 -20 -47 -20 -25 0
-62 27 -67 49 -3 14 2 16 104 26 73 7 73 7 40 72 -23 45 -81 66 -132 46z m86
-47 c24 -18 15 -27 -33 -33 -21 -2 -43 -6 -50 -8 -22 -7 -24 14 -3 35 23 23
58 26 86 6z"/>
<path d="M3412 844 c3 -91 5 -97 31 -120 29 -25 79 -32 107 -15 8 6 19 7 25 3
33 -21 36 -11 34 109 -2 114 -3 119 -24 119 -20 0 -21 -5 -20 -86 0 -74 -3
-88 -19 -100 -11 -8 -30 -14 -42 -14 -41 0 -52 30 -53 145 -1 44 -4 51 -22 52
-20 2 -21 -2 -17 -93z"/>
</g>
</svg>
