<?xml version="1.0" encoding="UTF-8" standalone="no"?>
<svg width="17px" height="17px" viewBox="0 0 17 17" version="1.1" xmlns="http://www.w3.org/2000/svg" xmlns:xlink="http://www.w3.org/1999/xlink" xmlns:sketch="http://www.bohemiancoding.com/sketch/ns">
    <!-- Generator: Sketch 3.4 (15575) - http://www.bohemiancoding.com/sketch -->
    <title>Instagram-icon-black</title>
    <desc>Created with Sketch.</desc>
    <defs></defs>
    <g id="Page-1" stroke="none" stroke-width="1" fill="none" fill-rule="evenodd" sketch:type="MSPage">
        <g id="Instagram-icon-black" sketch:type="MSLayerGroup" fill="#0A0B09">
            <path d="M4.98762144,0.0776877729 C4.0842779,0.118851528 3.46736761,0.261978166 2.92760832,0.471286026 C2.36950985,0.687683406 1.89622538,0.977240175 1.42442888,1.44800655 C0.952632385,1.91877293 0.662442013,2.39106114 0.445608315,2.94790393 C0.235730853,3.48655895 0.0922910284,4.10212227 0.0511115974,5.00345633 C0.0097833698,5.90664629 3.71991247e-05,6.19497817 3.71991247e-05,8.49476638 C3.71991247e-05,10.7946288 0.0097833698,11.0829607 0.0511115974,11.9861507 C0.0922910284,12.8874847 0.235730853,13.503048 0.445608315,14.0417031 C0.662442013,14.5985459 0.952632385,15.0708341 1.42442888,15.5416004 C1.89622538,16.0123668 2.36950985,16.3019236 2.92760832,16.518321 C3.46736761,16.7276288 4.0842779,16.8707555 4.98762144,16.9119192 C5.89278775,16.9531201 6.18178775,16.9628821 8.48660832,16.9628821 C10.7914289,16.9628821 11.0804661,16.9531201 11.9856324,16.9119192 C12.8889387,16.8707555 13.505849,16.7276288 14.0456455,16.518321 C14.603744,16.3019236 15.0769912,16.0123668 15.5487877,15.5416004 C16.0205842,15.0708341 16.3107746,14.5985459 16.5276455,14.0417031 C16.7374858,13.503048 16.8809256,12.8874847 16.9221422,11.9861507 C16.9634705,11.0829607 16.9731794,10.7946288 16.9731794,8.49476638 C16.9731794,6.19497817 16.9634705,5.90664629 16.9221422,5.00345633 C16.8809256,4.10212227 16.7374858,3.48655895 16.5276455,2.94790393 C16.3107746,2.39106114 16.0205842,1.91877293 15.5487877,1.44800655 C15.0769912,0.977240175 14.603744,0.687683406 14.0456455,0.471286026 C13.505849,0.261978166 12.8889387,0.118851528 11.9856324,0.0776877729 C11.0804661,0.0364126638 10.7914289,0.0267248908 8.48660832,0.0267248908 C6.18178775,0.0267248908 5.89278775,0.0364126638 4.98762144,0.0776877729 Z M8.48660832,11.3174716 C6.92428228,11.3174716 5.65772648,10.0537183 5.65772648,8.49476638 C5.65772648,6.93585153 6.92428228,5.67209825 8.48660832,5.67209825 C10.0489716,5.67209825 11.3154902,6.93585153 11.3154902,8.49476638 C11.3154902,10.0537183 10.0489716,11.3174716 8.48660832,11.3174716 Z M8.48660832,4.14632969 C6.07978775,4.14632969 4.12865646,6.09323799 4.12865646,8.49476638 C4.12865646,10.8964061 6.07978775,12.8432402 8.48660832,12.8432402 C10.8934289,12.8432402 12.8445602,10.8964061 12.8445602,8.49476638 C12.8445602,6.09323799 10.8934289,4.14632969 8.48660832,4.14632969 Z M14.0351926,3.97451092 C14.0351926,4.53569651 13.5792429,4.99068777 13.0167921,4.99068777 C12.4543786,4.99068777 11.9983917,4.53569651 11.9983917,3.97451092 C11.9983917,3.41328821 12.4543786,2.95833406 13.0167921,2.95833406 C13.5792429,2.95833406 14.0351926,3.41328821 14.0351926,3.97451092 Z" id="Fill-1" sketch:type="MSShapeGroup"></path>
        </g>
    </g>
</svg>